P3
4 4
255
0 0 0 50 50 50 0 0 0 255 255 255 
0 0 0 255 255 255 0 0 0 0 0 0 
0 0 0 0 0 0 131 131 131 0 0 0 
255 255 255 0 0 0 0 0 0 255 255 255 
