P3
4 4
255
0 0 0 0 0 0 0 0 0 252 252 252 
0 0 0 173 173 173 0 0 0 0 0 0 
0 0 0 0 0 0 173 173 173 0 0 0 
252 252 252 0 0 0 0 0 0 252 252 252 
