P3
4 4
255
0 0 0 33 33 33 0 0 0 135 135 135 
0 0 0 60 60 60 0 0 0 0 0 0 
0 0 0 0 0 0 36 36 36 0 0 0 
135 135 135 0 0 0 0 0 0 160 160 160 
