P3
4 4
255
0 0 0 200 0 0 0 0 0 255 0 255 
0 0 0 0 255 255 0 0 0 0 0 0 
0 0 0 0 0 0 0 30 255 0 0 0 
255 0 255 0 0 0 0 0 0 255 255 255 
